<svg xmlns="http://www.w3.org/2000/svg" width="1600" height="900" viewBox="0 0 1600 900" role="img" aria-labelledby="title desc">
  <title id="title">OpenAI Voice Terminal Architecture</title>
  <desc id="desc">Diagram showing AtomS3R, Raspberry Pi 5, OpenAI services, and response audio flow.</desc>
  <defs>
    <linearGradient id="bg" x1="0" y1="0" x2="1" y2="1">
      <stop offset="0%" stop-color="#f5f7fb"/>
      <stop offset="100%" stop-color="#e8eef7"/>
    </linearGradient>
    <linearGradient id="blue" x1="0" y1="0" x2="1" y2="1">
      <stop offset="0%" stop-color="#1f6feb"/>
      <stop offset="100%" stop-color="#0b4fb3"/>
    </linearGradient>
    <linearGradient id="green" x1="0" y1="0" x2="1" y2="1">
      <stop offset="0%" stop-color="#1f9d55"/>
      <stop offset="100%" stop-color="#147a41"/>
    </linearGradient>
    <linearGradient id="dark" x1="0" y1="0" x2="1" y2="1">
      <stop offset="0%" stop-color="#202938"/>
      <stop offset="100%" stop-color="#101723"/>
    </linearGradient>
    <filter id="shadow" x="-20%" y="-20%" width="140%" height="140%">
      <feDropShadow dx="0" dy="12" stdDeviation="18" flood-color="#0f172a" flood-opacity="0.14"/>
    </filter>
    <marker id="arrowBlue" markerWidth="14" markerHeight="14" refX="11" refY="7" orient="auto">
      <path d="M0,0 L14,7 L0,14 z" fill="#1f6feb"/>
    </marker>
    <marker id="arrowGreen" markerWidth="14" markerHeight="14" refX="11" refY="7" orient="auto">
      <path d="M0,0 L14,7 L0,14 z" fill="#1f9d55"/>
    </marker>
  </defs>

  <rect width="1600" height="900" fill="url(#bg)"/>
  <text x="110" y="112" fill="#0f172a" font-family="Arial, Helvetica, sans-serif" font-size="52" font-weight="700">OpenAI Voice Terminal System</text>
  <text x="110" y="158" fill="#475569" font-family="Arial, Helvetica, sans-serif" font-size="26">AtomS3R records and plays audio. Raspberry Pi 5 bridges HTTP and OpenAI APIs.</text>

  <rect x="110" y="250" rx="30" ry="30" width="360" height="320" fill="url(#blue)" filter="url(#shadow)"/>
  <text x="150" y="328" fill="#ffffff" font-family="Arial, Helvetica, sans-serif" font-size="42" font-weight="700">AtomS3R</text>
  <text x="150" y="376" fill="#dbeafe" font-family="Arial, Helvetica, sans-serif" font-size="24">Client Device</text>
  <rect x="150" y="410" rx="16" ry="16" width="280" height="56" fill="#ffffff" fill-opacity="0.16"/>
  <text x="178" y="446" fill="#ffffff" font-family="Arial, Helvetica, sans-serif" font-size="24">A button: push-to-talk</text>
  <rect x="150" y="486" rx="16" ry="16" width="280" height="56" fill="#ffffff" fill-opacity="0.16"/>
  <text x="178" y="522" fill="#ffffff" font-family="Arial, Helvetica, sans-serif" font-size="24">B button: cancel</text>
  <text x="150" y="610" fill="#dbeafe" font-family="Arial, Helvetica, sans-serif" font-size="24">Records WAV and plays reply audio</text>

  <rect x="620" y="250" rx="30" ry="30" width="360" height="320" fill="url(#green)" filter="url(#shadow)"/>
  <text x="660" y="328" fill="#ffffff" font-family="Arial, Helvetica, sans-serif" font-size="42" font-weight="700">Raspberry Pi 5</text>
  <text x="660" y="376" fill="#dcfce7" font-family="Arial, Helvetica, sans-serif" font-size="24">HTTP Voice Bridge</text>
  <rect x="660" y="410" rx="16" ry="16" width="280" height="56" fill="#ffffff" fill-opacity="0.16"/>
  <text x="688" y="446" fill="#ffffff" font-family="Arial, Helvetica, sans-serif" font-size="24">FastAPI /voice endpoint</text>
  <rect x="660" y="486" rx="16" ry="16" width="280" height="56" fill="#ffffff" fill-opacity="0.16"/>
  <text x="688" y="522" fill="#ffffff" font-family="Arial, Helvetica, sans-serif" font-size="24">ffmpeg WAV normalization</text>
  <text x="660" y="610" fill="#dcfce7" font-family="Arial, Helvetica, sans-serif" font-size="24">Calls OpenAI and returns WAV</text>

  <rect x="1130" y="210" rx="30" ry="30" width="360" height="400" fill="url(#dark)" filter="url(#shadow)"/>
  <text x="1170" y="288" fill="#ffffff" font-family="Arial, Helvetica, sans-serif" font-size="42" font-weight="700">OpenAI</text>
  <text x="1170" y="336" fill="#cbd5e1" font-family="Arial, Helvetica, sans-serif" font-size="24">Cloud Services</text>
  <rect x="1170" y="384" rx="18" ry="18" width="280" height="64" fill="#1e293b"/>
  <text x="1200" y="424" fill="#ffffff" font-family="Arial, Helvetica, sans-serif" font-size="24">Speech-to-Text</text>
  <rect x="1170" y="468" rx="18" ry="18" width="280" height="64" fill="#1e293b"/>
  <text x="1200" y="508" fill="#ffffff" font-family="Arial, Helvetica, sans-serif" font-size="24">LLM Response</text>
  <rect x="1170" y="552" rx="18" ry="18" width="280" height="64" fill="#1e293b"/>
  <text x="1200" y="592" fill="#ffffff" font-family="Arial, Helvetica, sans-serif" font-size="24">Text-to-Speech</text>

  <line x1="470" y1="360" x2="620" y2="360" stroke="#1f6feb" stroke-width="10" stroke-linecap="round" marker-end="url(#arrowBlue)"/>
  <text x="502" y="330" fill="#1d4ed8" font-family="Arial, Helvetica, sans-serif" font-size="22" font-weight="700">Wi-Fi / HTTP POST</text>
  <text x="520" y="392" fill="#475569" font-family="Arial, Helvetica, sans-serif" font-size="20">Recorded WAV upload</text>

  <line x1="980" y1="360" x2="1130" y2="360" stroke="#1f6feb" stroke-width="10" stroke-linecap="round" marker-end="url(#arrowBlue)"/>
  <text x="1006" y="330" fill="#1d4ed8" font-family="Arial, Helvetica, sans-serif" font-size="22" font-weight="700">OpenAI API Call</text>
  <text x="1012" y="392" fill="#475569" font-family="Arial, Helvetica, sans-serif" font-size="20">STT -> LLM -> TTS</text>

  <path d="M1130 690 C1000 770 760 800 470 760" fill="none" stroke="#1f9d55" stroke-width="10" stroke-linecap="round" marker-end="url(#arrowGreen)"/>
  <text x="770" y="785" fill="#166534" font-family="Arial, Helvetica, sans-serif" font-size="22" font-weight="700">Normalized WAV Reply</text>

  <circle cx="150" cy="760" r="7" fill="#1f6feb"/>
  <text x="170" y="767" fill="#475569" font-family="Arial, Helvetica, sans-serif" font-size="20">Client side: recording, controls, playback</text>
  <circle cx="690" cy="760" r="7" fill="#1f9d55"/>
  <text x="710" y="767" fill="#475569" font-family="Arial, Helvetica, sans-serif" font-size="20">Bridge side: upload handling, conversion, response packaging</text>
  <circle cx="1260" cy="760" r="7" fill="#0f172a"/>
  <text x="1280" y="767" fill="#475569" font-family="Arial, Helvetica, sans-serif" font-size="20">Cloud side: speech recognition, reasoning, synthesis</text>
</svg>
