<svg xmlns="http://www.w3.org/2000/svg" width="1800" height="980" viewBox="0 0 1800 980" font-family="Helvetica" role="img" aria-labelledby="title desc">
  <title id="title">OpenAI Voice Terminal Architecture</title>
  <desc id="desc">A clean architecture diagram showing AtomS3R, Raspberry Pi 5, OpenAI services, and response audio flow.</desc>
  <defs>
    <linearGradient id="bg" x1="0" y1="0" x2="1" y2="1">
      <stop offset="0%" stop-color="#f8fafc"/>
      <stop offset="100%" stop-color="#e5edf8"/>
    </linearGradient>
    <linearGradient id="blue" x1="0" y1="0" x2="1" y2="1">
      <stop offset="0%" stop-color="#2f7bf2"/>
      <stop offset="100%" stop-color="#1158c7"/>
    </linearGradient>
    <linearGradient id="green" x1="0" y1="0" x2="1" y2="1">
      <stop offset="0%" stop-color="#21a55a"/>
      <stop offset="100%" stop-color="#167540"/>
    </linearGradient>
    <linearGradient id="dark" x1="0" y1="0" x2="1" y2="1">
      <stop offset="0%" stop-color="#1f2937"/>
      <stop offset="100%" stop-color="#0f172a"/>
    </linearGradient>
    <filter id="shadow" x="-20%" y="-20%" width="140%" height="150%">
      <feDropShadow dx="0" dy="14" stdDeviation="18" flood-color="#0f172a" flood-opacity="0.14"/>
    </filter>
    <marker id="arrowBlue" markerWidth="18" markerHeight="18" refX="13" refY="9" orient="auto">
      <path d="M0,0 L18,9 L0,18 z" fill="#2563eb"/>
    </marker>
    <marker id="arrowGreen" markerWidth="18" markerHeight="18" refX="13" refY="9" orient="auto">
      <path d="M0,0 L18,9 L0,18 z" fill="#15803d"/>
    </marker>
  </defs>

  <rect width="1800" height="980" fill="url(#bg)"/>

  <text x="120" y="116" fill="#0f172a" font-size="62" font-weight="700">OpenAI Voice Terminal System</text>
  <text x="120" y="164" fill="#475569" font-size="28">AtomS3R records and plays audio. Raspberry Pi 5 bridges HTTP and OpenAI APIs.</text>

  <rect x="120" y="250" rx="34" ry="34" width="380" height="350" fill="url(#blue)" filter="url(#shadow)"/>
  <text x="160" y="334" fill="#ffffff" font-size="44" font-weight="700">AtomS3R</text>
  <text x="160" y="382" fill="#dbeafe" font-size="26">Client device</text>
  <rect x="160" y="420" rx="18" ry="18" width="300" height="62" fill="#ffffff" fill-opacity="0.16"/>
  <text x="190" y="460" fill="#ffffff" font-size="25">A button: push-to-talk</text>
  <rect x="160" y="502" rx="18" ry="18" width="300" height="62" fill="#ffffff" fill-opacity="0.16"/>
  <text x="190" y="542" fill="#ffffff" font-size="25">B button: cancel</text>
  <text x="160" y="642" fill="#dbeafe" font-size="24">Records WAV and plays reply audio</text>

  <rect x="710" y="250" rx="34" ry="34" width="380" height="350" fill="url(#green)" filter="url(#shadow)"/>
  <text x="750" y="334" fill="#ffffff" font-size="44" font-weight="700">Raspberry Pi 5</text>
  <text x="750" y="382" fill="#dcfce7" font-size="26">HTTP voice bridge</text>
  <rect x="750" y="420" rx="18" ry="18" width="300" height="62" fill="#ffffff" fill-opacity="0.16"/>
  <text x="788" y="460" fill="#ffffff" font-size="25">FastAPI /voice endpoint</text>
  <rect x="750" y="502" rx="18" ry="18" width="300" height="62" fill="#ffffff" fill-opacity="0.16"/>
  <text x="780" y="542" fill="#ffffff" font-size="25">ffmpeg WAV normalization</text>
  <text x="750" y="642" fill="#dcfce7" font-size="24">Calls OpenAI and returns WAV</text>

  <rect x="1300" y="210" rx="34" ry="34" width="380" height="430" fill="url(#dark)" filter="url(#shadow)"/>
  <text x="1340" y="300" fill="#ffffff" font-size="44" font-weight="700">OpenAI</text>
  <text x="1340" y="348" fill="#cbd5e1" font-size="26">Cloud services</text>
  <rect x="1340" y="396" rx="18" ry="18" width="300" height="66" fill="#1e293b"/>
  <text x="1374" y="438" fill="#ffffff" font-size="25">Speech-to-Text</text>
  <rect x="1340" y="482" rx="18" ry="18" width="300" height="66" fill="#1e293b"/>
  <text x="1374" y="524" fill="#ffffff" font-size="25">LLM Response</text>
  <rect x="1340" y="568" rx="18" ry="18" width="300" height="66" fill="#1e293b"/>
  <text x="1374" y="610" fill="#ffffff" font-size="25">Text-to-Speech</text>

  <line x1="500" y1="425" x2="710" y2="425" stroke="#2563eb" stroke-width="12" stroke-linecap="round" marker-end="url(#arrowBlue)"/>
  <text x="546" y="388" fill="#1d4ed8" font-size="24" font-weight="700">Wi-Fi / HTTP POST</text>
  <text x="556" y="472" fill="#475569" font-size="22">Recorded WAV upload</text>

  <line x1="1090" y1="425" x2="1300" y2="425" stroke="#2563eb" stroke-width="12" stroke-linecap="round" marker-end="url(#arrowBlue)"/>
  <text x="1140" y="388" fill="#1d4ed8" font-size="24" font-weight="700">OpenAI API Call</text>
  <text x="1148" y="472" fill="#475569" font-size="22">STT -&gt; LLM -&gt; TTS</text>

  <path d="M1300 740 C1120 860 790 870 470 790" fill="none" stroke="#15803d" stroke-width="12" stroke-linecap="round" marker-end="url(#arrowGreen)"/>
  <text x="865" y="870" fill="#166534" font-size="30" font-weight="700">Normalized WAV Reply</text>

  <text x="120" y="910" fill="#64748b" font-size="22">Client side: recording, controls, playback | Bridge side: upload handling, conversion, response packaging | Cloud side: speech recognition, reasoning, synthesis</text>
</svg>
